<svg width="16" height="16" viewBox="0 0 16 16" fill="none" xmlns="http://www.w3.org/2000/svg">
<g clip-path="url(#clip0)">
<rect width="16" height="16" rx="4" fill="#333333"/>
<path d="M16.66 13.83C15.9333 14.1967 15.1967 14.2567 14.45 14.01C13.6567 13.7567 12.9733 13.2167 12.4 12.39C12.0933 11.95 11.83 11.44 11.61 10.86L11.29 10.01H8.93L8.4 11.27C8.36667 11.3567 8.35 11.4267 8.35 11.48C8.35 11.5333 8.36 11.5933 8.38 11.66C8.40667 11.72 8.45667 11.7767 8.53 11.83C8.61 11.8767 8.69667 11.9 8.79 11.9H8.87V12H6.73V11.9H6.82C6.97333 11.9 7.12333 11.8567 7.27 11.77C7.42333 11.6767 7.55 11.54 7.65 11.36L9.88 6.27C9.62 5.68333 9.34333 5.28 9.05 5.06C8.80333 4.87333 8.56667 4.78 8.34 4.78C8.12 4.78 7.91333 4.81333 7.72 4.88L7.7 4.78C8.18 4.53333 8.64 4.41 9.08 4.41C9.62667 4.41 10.1167 4.62333 10.55 5.05C10.9767 5.47 11.3533 6.07667 11.68 6.87L13.13 10.45C13.6767 11.8033 14.2367 12.7333 14.81 13.24C15.0433 13.4467 15.2833 13.59 15.53 13.67C15.7767 13.75 15.9833 13.79 16.15 13.79C16.3233 13.79 16.49 13.77 16.65 13.73L16.66 13.83ZM9.1 9.58H11.14L10.44 7.73C10.4067 7.63667 10.36 7.51 10.3 7.35C10.24 7.18333 10.2 7.06667 10.18 7L9.1 9.58Z" fill="#219EBC"/>
<path d="M0.136 2.606C0.478 2.462 0.775 2.39 1.027 2.39C1.279 2.39 1.501 2.414 1.693 2.462C1.885 2.51 2.08 2.591 2.278 2.705C2.482 2.813 2.671 2.948 2.845 3.11C3.181 3.428 3.466 3.788 3.7 4.19L5.5 7.565L8.11 3.074H8.191L9.127 8.366C9.271 9.182 9.52 9.83 9.874 10.31C10.228 10.796 10.714 11.039 11.332 11.039C11.374 11.039 11.413 11.039 11.449 11.039V11.129C11.119 11.219 10.795 11.264 10.477 11.264C9.829 11.264 9.238 11.009 8.704 10.499C8.188 10.013 7.837 9.302 7.651 8.366L7.21 5.747L5.518 8.681C5.29 9.059 5.173 9.392 5.167 9.68H5.086L2.845 5.432L2.404 9.032C2.386 9.17 2.446 9.281 2.584 9.365C2.638 9.401 2.695 9.419 2.755 9.419H2.899V9.5H1.018V9.41H1.162C1.318 9.41 1.456 9.365 1.576 9.275C1.702 9.179 1.78 9.05 1.81 8.888L2.422 4.595C2.152 4.115 1.843 3.689 1.495 3.317C1.105 2.897 0.697 2.687 0.271 2.687C0.229 2.687 0.19 2.69 0.154 2.696L0.136 2.606Z" fill="#8F959A"/>
</g>
<defs>
<clipPath id="clip0">
<rect width="16" height="16" rx="4" fill="white"/>
</clipPath>
</defs>
</svg>
