<svg width="56" height="42" viewBox="0 0 56 42" fill="none" xmlns="http://www.w3.org/2000/svg">
<path d="M55.5356 40.6951C53.3556 41.7951 51.1456 41.9751 48.9056 41.2351C46.5256 40.4751 44.4756 38.8551 42.7556 36.3751C41.8356 35.0551 41.0456 33.5251 40.3856 31.7851L39.4256 29.2351H32.3456L30.7556 33.0151C30.6556 33.2751 30.6056 33.4851 30.6056 33.6451C30.6056 33.8051 30.6356 33.9851 30.6956 34.1851C30.7756 34.3651 30.9256 34.5351 31.1456 34.6951C31.3856 34.8351 31.6456 34.9051 31.9256 34.9051H32.1656V35.2051H25.7456V34.9051H26.0156C26.4756 34.9051 26.9256 34.7751 27.3656 34.5151C27.8256 34.2351 28.2056 33.8251 28.5056 33.2851L35.1956 18.0151C34.4156 16.2551 33.5856 15.0451 32.7056 14.3851C31.9656 13.8251 31.2556 13.5451 30.5756 13.5451C29.9156 13.5451 29.2956 13.6451 28.7156 13.8451L28.6556 13.5451C30.0956 12.8051 31.4756 12.4351 32.7956 12.4351C34.4356 12.4351 35.9056 13.0751 37.2056 14.3551C38.4856 15.6151 39.6156 17.4351 40.5956 19.8151L44.9456 30.5551C46.5856 34.6151 48.2656 37.4051 49.9856 38.9251C50.6856 39.5451 51.4056 39.9751 52.1456 40.2151C52.8856 40.4551 53.5056 40.5751 54.0056 40.5751C54.5256 40.5751 55.0256 40.5151 55.5056 40.3951L55.5356 40.6951ZM32.8556 27.9451H38.9756L36.8756 22.3951C36.7756 22.1151 36.6356 21.7351 36.4556 21.2551C36.2756 20.7551 36.1556 20.4051 36.0956 20.2051L32.8556 27.9451Z" fill="#8ECAE6"/>
<path d="M0.12 4.02C1.26 3.54 2.25 3.3 3.09 3.3C3.93 3.3 4.67 3.38 5.31 3.54C5.95 3.7 6.6 3.97 7.26 4.35C7.94 4.71 8.57 5.16 9.15 5.7C10.27 6.76 11.22 7.96 12 9.3L18 20.55L26.7 5.58H26.97L30.09 23.22C30.57 25.94 31.4 28.1 32.58 29.7C33.76 31.32 35.38 32.13 37.44 32.13C37.58 32.13 37.71 32.13 37.83 32.13V32.43C36.73 32.73 35.65 32.88 34.59 32.88C32.43 32.88 30.46 32.03 28.68 30.33C26.96 28.71 25.79 26.34 25.17 23.22L23.7 14.49L18.06 24.27C17.3 25.53 16.91 26.64 16.89 27.6H16.62L9.15 13.44L7.68 25.44C7.62 25.9 7.82 26.27 8.28 26.55C8.46 26.67 8.65 26.73 8.85 26.73H9.33V27H3.06V26.7H3.54C4.06 26.7 4.52 26.55 4.92 26.25C5.34 25.93 5.6 25.5 5.7 24.96L7.74 10.65C6.84 9.05 5.81 7.63 4.65 6.39C3.35 4.99 1.99 4.29 0.57 4.29C0.43 4.29 0.3 4.3 0.18 4.32L0.12 4.02Z" fill="#F8EDEB"/>
</svg>
