<svg width="141" height="256" viewBox="0 0 141 256" fill="none" xmlns="http://www.w3.org/2000/svg">
<path fill-rule="evenodd" clip-rule="evenodd" d="M95.9935 191.82C89.6295 198.184 51.4457 198.184 45.0818 191.82C42.9626 189.7 40.837 183.336 38.7178 172.728L6.898 191.82L0.534039 160L32.3539 140.908C19.6259 77.2683 45.0818 26.3567 70.5376 0.900813C95.9935 26.3567 121.449 77.2684 108.721 140.908L140.541 160L134.177 191.82L102.357 172.728C100.238 183.336 98.1127 189.7 95.9935 191.82ZM57.0376 83.6323C57.0376 87.2127 58.4599 90.6465 60.9917 93.1783C63.5234 95.71 66.9572 97.1323 70.5376 97.1323C74.118 97.1323 77.5518 95.71 80.0836 93.1783C82.6153 90.6465 84.0376 87.2127 84.0376 83.6323C84.0376 80.0519 82.6153 76.6181 80.0836 74.0864C77.5518 71.5546 74.118 70.1323 70.5376 70.1323C66.9572 70.1323 63.5234 71.5546 60.9917 74.0864C58.4599 76.6181 57.0376 80.0519 57.0376 83.6323Z" fill="#333333"/>
<path fill-rule="evenodd" clip-rule="evenodd" d="M95.9935 191.82C89.6295 198.184 51.4457 198.184 45.0818 191.82C42.9626 189.7 40.837 183.336 38.7178 172.728L6.898 191.82L0.534039 160L32.3539 140.908C19.6259 77.2683 45.0818 26.3567 70.5376 0.900813C95.9935 26.3567 121.449 77.2684 108.721 140.908L140.541 160L134.177 191.82L102.357 172.728C100.238 183.336 98.1127 189.7 95.9935 191.82ZM57.0376 83.6323C57.0376 87.2127 58.4599 90.6465 60.9917 93.1783C63.5234 95.71 66.9572 97.1323 70.5376 97.1323C74.118 97.1323 77.5518 95.71 80.0836 93.1783C82.6153 90.6465 84.0376 87.2127 84.0376 83.6323C84.0376 80.0519 82.6153 76.6181 80.0836 74.0864C77.5518 71.5546 74.118 70.1323 70.5376 70.1323C66.9572 70.1323 63.5234 71.5546 60.9917 74.0864C58.4599 76.6181 57.0376 80.0519 57.0376 83.6323Z" fill="url(#paint0_linear)"/>
<path d="M95.9935 204.548L80.0836 207.73C80.0836 216.219 76.9016 223.639 70.5376 230.003C64.1737 223.639 60.9917 216.219 60.9917 207.73L45.0818 204.548C45.0818 221.514 53.5649 238.487 70.5376 255.459C87.5103 238.487 95.9935 221.514 95.9935 204.548Z" fill="#333333"/>
<path d="M95.9935 204.548L80.0836 207.73C80.0836 216.219 76.9016 223.639 70.5376 230.003C64.1737 223.639 60.9917 216.219 60.9917 207.73L45.0818 204.548C45.0818 221.514 53.5649 238.487 70.5376 255.459C87.5103 238.487 95.9935 221.514 95.9935 204.548Z" fill="url(#paint1_linear)"/>
<defs>
<linearGradient id="paint0_linear" x1="70.9927" y1="1.36498" x2="70.9927" y2="251.385" gradientUnits="userSpaceOnUse">
<stop offset="0.796875" stop-color="#333333"/>
<stop offset="0.796975" stop-color="#F4A261"/>
</linearGradient>
<linearGradient id="paint1_linear" x1="70.9927" y1="1.36498" x2="70.9927" y2="251.385" gradientUnits="userSpaceOnUse">
<stop offset="0.796875" stop-color="#333333"/>
<stop offset="0.796975" stop-color="#F4A261"/>
</linearGradient>
</defs>
</svg>
