<svg width="283" height="284" viewBox="0 0 283 284" fill="none" xmlns="http://www.w3.org/2000/svg">
<g clip-path="url(#clip0)">
<path fill-rule="evenodd" clip-rule="evenodd" d="M117.851 200.926C123.744 206.818 159.099 206.818 164.992 200.926C166.954 198.963 168.922 193.071 170.884 183.248L200.347 200.926L206.239 171.463L176.777 153.785C188.562 94.8596 164.992 47.7191 141.421 24.1489C117.851 47.7191 94.2809 94.8596 106.066 153.785L76.6032 171.463L82.4958 200.926L111.959 183.248C113.921 193.071 115.889 198.963 117.851 200.926ZM153.921 100.752C153.921 104.067 152.604 107.247 150.26 109.591C147.916 111.935 144.737 113.252 141.421 113.252C138.106 113.252 134.927 111.935 132.583 109.591C130.238 107.247 128.921 104.067 128.921 100.752C128.921 97.4369 130.238 94.2575 132.583 91.9133C134.927 89.5691 138.106 88.2521 141.421 88.2521C144.737 88.2521 147.916 89.5691 150.26 91.9133C152.604 94.2575 153.921 97.4369 153.921 100.752Z" fill="#333333"/>
<path fill-rule="evenodd" clip-rule="evenodd" d="M117.851 200.926C123.744 206.818 159.099 206.818 164.992 200.926C166.954 198.963 168.922 193.071 170.884 183.248L200.347 200.926L206.239 171.463L176.777 153.785C188.562 94.8596 164.992 47.7191 141.421 24.1489C117.851 47.7191 94.2809 94.8596 106.066 153.785L76.6032 171.463L82.4958 200.926L111.959 183.248C113.921 193.071 115.889 198.963 117.851 200.926ZM153.921 100.752C153.921 104.067 152.604 107.247 150.26 109.591C147.916 111.935 144.737 113.252 141.421 113.252C138.106 113.252 134.927 111.935 132.583 109.591C130.238 107.247 128.921 104.067 128.921 100.752C128.921 97.4369 130.238 94.2575 132.583 91.9133C134.927 89.5691 138.106 88.2521 141.421 88.2521C144.737 88.2521 147.916 89.5691 150.26 91.9133C152.604 94.2575 153.921 97.4369 153.921 100.752Z" fill="url(#paint0_linear)"/>
<path d="M117.851 212.711L132.583 215.657C132.583 223.518 135.529 230.388 141.421 236.281C147.314 230.388 150.26 223.518 150.26 215.657L164.992 212.711C164.992 228.42 157.137 244.136 141.421 259.851C125.706 244.136 117.851 228.42 117.851 212.711Z" fill="#333333"/>
<path d="M117.851 212.711L132.583 215.657C132.583 223.518 135.529 230.388 141.421 236.281C147.314 230.388 150.26 223.518 150.26 215.657L164.992 212.711C164.992 228.42 157.137 244.136 141.421 259.851C125.706 244.136 117.851 228.42 117.851 212.711Z" fill="url(#paint1_linear)"/>
</g>
<defs>
<linearGradient id="paint0_linear" x1="141" y1="24.5786" x2="141" y2="256.079" gradientUnits="userSpaceOnUse">
<stop offset="0.78125" stop-color="#333333"/>
<stop offset="0.78135" stop-color="#F4A261"/>
</linearGradient>
<linearGradient id="paint1_linear" x1="141" y1="24.5786" x2="141" y2="256.079" gradientUnits="userSpaceOnUse">
<stop offset="0.78125" stop-color="#333333"/>
<stop offset="0.78135" stop-color="#F4A261"/>
</linearGradient>
<clipPath id="clip0">
<rect width="200" height="200" fill="white" transform="translate(0 142) rotate(-45)"/>
</clipPath>
</defs>
</svg>
