<svg width="60" height="61" viewBox="0 0 60 61" fill="none" xmlns="http://www.w3.org/2000/svg">
<rect y="1" width="60" height="60" fill="#111111"/>
<path d="M30.5859 16.2734C32.5911 16.2734 34.7135 16.3451 36.9531 16.4883C39.2057 16.6315 41.5495 16.9115 43.9844 17.3281V22.2891C42.8906 21.9766 41.7839 21.7227 40.6641 21.5273C39.5443 21.319 38.418 21.1562 37.2852 21.0391C36.1654 20.9219 35.0456 20.8372 33.9258 20.7852C32.806 20.7331 31.6927 20.7005 30.5859 20.6875C30.0521 20.6875 29.4596 20.7005 28.8086 20.7266C28.1706 20.7396 27.487 20.7656 26.7578 20.8047C26.0417 20.8438 25.2865 20.9023 24.4922 20.9805C23.6979 21.0586 22.8906 21.1562 22.0703 21.2734V28.3828H39.1406V33.1875H22.0703V41.0391C23.3333 41.2214 24.6484 41.3581 26.0156 41.4492C27.3828 41.5404 28.9062 41.5859 30.5859 41.5859C32.8516 41.5859 35.1042 41.4753 37.3438 41.2539C39.5833 41.0326 41.7969 40.6094 43.9844 39.9844V44.9453C41.5495 45.362 39.2122 45.6419 36.9727 45.7852C34.7331 45.9284 32.6302 46 30.6641 46C28.6589 46 26.5299 45.9284 24.2773 45.7852C22.0378 45.6419 19.6875 45.362 17.2266 44.9453V17.3281C19.6875 16.9115 22.0378 16.6315 24.2773 16.4883C26.5169 16.3451 28.6198 16.2734 30.5859 16.2734Z" fill="#36D199"/>
<path d="M36.9531 16.4883L36.9212 16.9873L36.9214 16.9873L36.9531 16.4883ZM43.9844 17.3281H44.4844V16.9064L44.0687 16.8353L43.9844 17.3281ZM43.9844 22.2891L43.847 22.7698L44.4844 22.9519V22.2891H43.9844ZM40.6641 21.5273L40.5726 22.0189L40.5782 22.0199L40.6641 21.5273ZM37.2852 21.0391L37.2331 21.5363L37.2337 21.5364L37.2852 21.0391ZM30.5859 20.6875L30.5918 20.1875H30.5859V20.6875ZM28.8086 20.7266L28.8188 21.2266L28.8286 21.2262L28.8086 20.7266ZM26.7578 20.8047L26.7311 20.3054L26.7306 20.3054L26.7578 20.8047ZM22.0703 21.2734L21.9996 20.7785L21.5703 20.8398V21.2734H22.0703ZM22.0703 28.3828H21.5703V28.8828H22.0703V28.3828ZM39.1406 28.3828H39.6406V27.8828H39.1406V28.3828ZM39.1406 33.1875V33.6875H39.6406V33.1875H39.1406ZM22.0703 33.1875V32.6875H21.5703V33.1875H22.0703ZM22.0703 41.0391H21.5703V41.4721L21.9989 41.5339L22.0703 41.0391ZM43.9844 39.9844H44.4844V39.3215L43.847 39.5036L43.9844 39.9844ZM43.9844 44.9453L44.0687 45.4381L44.4844 45.367V44.9453H43.9844ZM24.2773 45.7852L24.2454 46.2841L24.2456 46.2841L24.2773 45.7852ZM17.2266 44.9453H16.7266V45.3678L17.1431 45.4383L17.2266 44.9453ZM17.2266 17.3281L17.1431 16.8351L16.7266 16.9057V17.3281H17.2266ZM30.5859 16.7734C32.5793 16.7734 34.691 16.8446 36.9212 16.9873L36.985 15.9893C34.7361 15.8455 32.603 15.7734 30.5859 15.7734V16.7734ZM36.9214 16.9873C39.1548 17.1293 41.4809 17.407 43.9 17.821L44.0687 16.8353C41.618 16.4159 39.2566 16.1337 36.9849 15.9893L36.9214 16.9873ZM43.4844 17.3281V22.2891H44.4844V17.3281H43.4844ZM44.1217 21.8083C43.0111 21.491 41.8871 21.2331 40.75 21.0348L40.5782 22.0199C41.6806 22.2122 42.7702 22.4622 43.847 22.7698L44.1217 21.8083ZM40.7555 21.0358C39.6225 20.825 38.4828 20.6603 37.3366 20.5417L37.2337 21.5364C38.3531 21.6522 39.4661 21.813 40.5726 22.0189L40.7555 21.0358ZM37.3372 20.5418C36.2079 20.4236 35.0785 20.3382 33.949 20.2857L33.9026 21.2846C35.0127 21.3363 36.1229 21.4202 37.2331 21.5363L37.3372 20.5418ZM33.949 20.2857C32.8235 20.2333 31.7044 20.2006 30.5918 20.1875L30.5801 21.1875C31.681 21.2004 32.7885 21.2328 33.9026 21.2846L33.949 20.2857ZM30.5859 20.1875C30.0442 20.1875 29.4449 20.2007 28.7886 20.227L28.8286 21.2262C29.4743 21.2003 30.06 21.1875 30.5859 21.1875V20.1875ZM28.7984 20.2267C28.1541 20.2398 27.465 20.2661 26.7311 20.3054L26.7846 21.304C27.509 21.2652 28.187 21.2394 28.8188 21.2265L28.7984 20.2267ZM26.7306 20.3054C26.0064 20.3449 25.2439 20.4041 24.4432 20.4829L24.5411 21.4781C25.329 21.4006 26.0769 21.3426 26.785 21.3039L26.7306 20.3054ZM24.4432 20.4829C23.6414 20.5617 22.8269 20.6603 21.9996 20.7785L22.141 21.7684C22.9544 21.6522 23.7544 21.5555 24.5411 21.4781L24.4432 20.4829ZM21.5703 21.2734V28.3828H22.5703V21.2734H21.5703ZM22.0703 28.8828H39.1406V27.8828H22.0703V28.8828ZM38.6406 28.3828V33.1875H39.6406V28.3828H38.6406ZM39.1406 32.6875H22.0703V33.6875H39.1406V32.6875ZM21.5703 33.1875V41.0391H22.5703V33.1875H21.5703ZM21.9989 41.5339C23.2755 41.7182 24.6033 41.8562 25.9824 41.9481L26.0489 40.9503C24.6935 40.86 23.3912 40.7245 22.1417 40.5442L21.9989 41.5339ZM25.9824 41.9481C27.3628 42.0401 28.8975 42.0859 30.5859 42.0859V41.0859C28.915 41.0859 27.4029 41.0406 26.0489 40.9503L25.9824 41.9481ZM30.5859 42.0859C32.8679 42.0859 35.1369 41.9745 37.3929 41.7515L37.2946 40.7563C35.0714 40.9761 32.8353 41.0859 30.5859 41.0859V42.0859ZM37.3929 41.7515C39.6627 41.5271 41.9057 41.0983 44.1217 40.4651L43.847 39.5036C41.688 40.1205 39.504 40.538 37.2946 40.7563L37.3929 41.7515ZM43.4844 39.9844V44.9453H44.4844V39.9844H43.4844ZM43.9 44.4525C41.4808 44.8665 39.1611 45.1442 36.9407 45.2862L37.0046 46.2841C39.2634 46.1397 41.6182 45.8575 44.0687 45.4381L43.9 44.4525ZM36.9407 45.2862C34.7103 45.4288 32.6182 45.5 30.6641 45.5V46.5C32.6422 46.5 34.7558 46.428 37.0046 46.2841L36.9407 45.2862ZM30.6641 45.5C28.6707 45.5 26.5524 45.4288 24.3091 45.2862L24.2456 46.2841C26.5075 46.428 28.6471 46.5 30.6641 46.5V45.5ZM24.3093 45.2862C22.0887 45.1442 19.7558 44.8664 17.31 44.4523L17.1431 45.4383C19.6192 45.8575 21.9868 46.1397 24.2454 46.2841L24.3093 45.2862ZM17.7266 44.9453V17.3281H16.7266V44.9453H17.7266ZM17.31 17.8211C19.7558 17.407 22.0887 17.1293 24.3093 16.9873L24.2454 15.9893C21.9868 16.1337 19.6192 16.4159 17.1431 16.8351L17.31 17.8211ZM24.3093 16.9873C26.5397 16.8446 28.6318 16.7734 30.5859 16.7734V15.7734C28.6078 15.7734 26.4942 15.8455 24.2454 15.9893L24.3093 16.9873Z" fill="#36D199"/>
</svg>
