<svg width="300" height="240" viewBox="0 0 300 240" fill="none" xmlns="http://www.w3.org/2000/svg">
<rect width="300" height="240" fill="#333333"/>
<path d="M74.5 113.1C74.65 113.1 74.725 113.25 74.725 113.55C74.775 113.85 74.7 114 74.5 114C73 114 71.8 113.975 70.9 113.925L65.35 113.85L60.025 113.925C59.125 113.975 57.85 114 56.2 114C56.05 114 55.975 113.85 55.975 113.55C55.975 113.25 56.05 113.1 56.2 113.1C57.75 113.1 58.875 112.975 59.575 112.725C60.325 112.475 60.825 112 61.075 111.3C61.325 110.55 61.4 109.425 61.3 107.925L60.25 72.15L45.85 113.475C45.75 113.675 45.575 113.775 45.325 113.775C45.025 113.775 44.8 113.65 44.65 113.4L28 74.025L27.85 104.25C27.75 107 28.225 109.175 29.275 110.775C30.375 112.325 31.875 113.1 33.775 113.1C33.925 113.1 34 113.25 34 113.55C34 113.85 33.925 114 33.775 114C32.525 114 31.525 113.975 30.775 113.925L26.35 113.85L22.45 113.925C21.7 113.975 20.625 114 19.225 114C19.125 114 19.075 113.85 19.075 113.55C19.075 113.25 19.125 113.1 19.225 113.1C21.125 113.1 22.625 112.325 23.725 110.775C24.875 109.225 25.45 107.125 25.45 104.475L25.825 70.5C24.275 68.85 22.175 68.025 19.525 68.025C19.375 68.025 19.3 67.875 19.3 67.575C19.3 67.275 19.375 67.125 19.525 67.125C20.275 67.125 20.9 67.15 21.4 67.2L24.625 67.275L29.575 67.2C30.125 67.15 30.8 67.125 31.6 67.125C32.25 67.125 32.775 67.375 33.175 67.875C33.625 68.375 34.175 69.425 34.825 71.025L48.025 101.85L59.35 69C59.5 68.45 59.8 68 60.25 67.65C60.75 67.3 61.325 67.125 61.975 67.125C62.775 67.125 63.45 67.15 64 67.2L67.375 67.275L70.75 67.2C71.25 67.15 71.975 67.125 72.925 67.125C73.075 67.125 73.15 67.275 73.15 67.575C73.15 67.875 73.1 68.025 73 68.025C71.4 68.025 70.2 68.3 69.4 68.85C68.65 69.35 68.275 70.325 68.275 71.775C68.275 72.325 68.3 72.75 68.35 73.05L69.4 107.925C69.5 109.425 69.675 110.55 69.925 111.3C70.225 112 70.7 112.475 71.35 112.725C72 112.975 73.05 113.1 74.5 113.1ZM117.003 108.225C117.053 108.175 117.128 108.15 117.228 108.15C117.378 108.15 117.528 108.25 117.678 108.45C117.828 108.6 117.878 108.725 117.828 108.825C116.428 110.775 115.078 112.25 113.778 113.25C112.478 114.2 111.153 114.675 109.803 114.675C108.003 114.675 106.653 114.075 105.753 112.875C104.853 111.675 104.403 109.825 104.403 107.325V102.225C103.053 106.225 101.153 109.35 98.7033 111.6C96.2533 113.85 93.6533 114.975 90.9033 114.975C88.8533 114.975 87.1783 114.3 85.8783 112.95C84.6283 111.55 84.0033 109.425 84.0033 106.575C84.0033 103.275 84.9033 99.875 86.7033 96.375C88.5033 92.825 90.8033 89.9 93.6033 87.6C96.4533 85.25 99.3533 84.075 102.303 84.075C103.353 84.075 104.428 84.25 105.528 84.6C106.678 84.9 107.703 85.375 108.603 86.025C109.553 85.275 110.253 84.425 110.703 83.475C110.803 83.375 110.903 83.325 111.003 83.325C111.153 83.325 111.303 83.375 111.453 83.475C111.653 83.575 111.728 83.65 111.678 83.7L111.528 107.325C111.478 108.475 111.578 109.35 111.828 109.95C112.128 110.55 112.553 110.85 113.103 110.85C113.603 110.85 114.203 110.625 114.903 110.175C115.603 109.675 116.303 109.025 117.003 108.225ZM95.1783 109.5C96.8283 109.5 98.3533 108.7 99.7533 107.1C101.203 105.5 102.328 103.55 103.128 101.25C103.978 98.9 104.403 96.75 104.403 94.8C104.403 92.6 103.878 90.875 102.828 89.625C101.828 88.375 100.453 87.75 98.7033 87.75C96.1533 87.75 94.1533 89 92.7033 91.5C91.2533 93.95 90.5283 97.15 90.5283 101.1C90.5783 104.05 91.0283 106.2 91.8783 107.55C92.7283 108.85 93.8283 109.5 95.1783 109.5ZM149.521 88.125C149.521 88.975 149.121 89.9 148.321 90.9C147.521 91.85 146.646 92.325 145.696 92.325C145.196 92.325 144.746 92.25 144.346 92.1C143.996 91.9 143.546 91.65 142.996 91.35C142.646 91.15 142.296 90.975 141.946 90.825C141.646 90.675 141.346 90.6 141.046 90.6C140.096 90.6 139.196 91.825 138.346 94.275C137.546 96.675 136.896 99.625 136.396 103.125C135.946 106.575 135.696 109.7 135.646 112.5V113.1C135.646 114.1 134.221 114.6 131.371 114.6C129.621 114.6 128.696 114.4 128.596 114V112.275C128.696 110.875 128.746 109.6 128.746 108.45L128.821 91.725C128.821 89.275 128.171 88.05 126.871 88.05C125.721 88.05 124.371 89.05 122.821 91.05C122.721 91.15 122.621 91.2 122.521 91.2C122.321 91.2 122.146 91.125 121.996 90.975C121.846 90.775 121.846 90.575 121.996 90.375C123.496 88.275 124.946 86.75 126.346 85.8C127.746 84.85 129.221 84.375 130.771 84.375C132.521 84.375 133.771 84.925 134.521 86.025C135.271 87.075 135.696 88.675 135.796 90.825L135.721 98.85C136.371 94.4 137.346 90.875 138.646 88.275C139.946 85.625 141.646 84.3 143.746 84.3C144.996 84.3 146.271 84.7 147.571 85.5C148.871 86.25 149.521 87.125 149.521 88.125ZM170.77 114.975C167.62 114.975 164.97 114.2 162.82 112.65C160.72 111.1 159.17 109.1 158.17 106.65C157.17 104.15 156.745 101.55 156.895 98.85C156.945 96.2 157.72 93.75 159.22 91.5C160.72 89.2 162.67 87.4 165.07 86.1C167.47 84.75 169.92 84.075 172.42 84.075C174.57 84.075 176.52 84.5 178.27 85.35C180.02 86.2 180.995 87.45 181.195 89.1C181.295 90.15 181.02 90.975 180.37 91.575C179.77 92.175 178.82 92.475 177.52 92.475C176.17 92.475 175.17 92.175 174.52 91.575C173.87 90.975 173.295 90.15 172.795 89.1C172.295 88.15 171.795 87.425 171.295 86.925C170.795 86.425 170.095 86.175 169.195 86.175C167.595 86.175 166.32 87.025 165.37 88.725C164.47 90.425 164.02 92.7 164.02 95.55C164.02 100.15 164.945 103.925 166.795 106.875C168.695 109.825 171.445 111.3 175.045 111.3C177.645 111.3 179.695 110.7 181.195 109.5H181.27C181.42 109.5 181.57 109.6 181.72 109.8C181.92 109.95 181.97 110.1 181.87 110.25C180.32 112 178.62 113.225 176.77 113.925C174.92 114.625 172.92 114.975 170.77 114.975ZM203.625 115.05C200.725 115.05 198.225 114.375 196.125 113.025C194.075 111.625 192.525 109.775 191.475 107.475C190.425 105.175 189.9 102.65 189.9 99.9C189.9 96.8 190.55 94.05 191.85 91.65C193.15 89.25 194.95 87.4 197.25 86.1C199.6 84.75 202.225 84.075 205.125 84.075C209.525 84.075 212.95 85.475 215.4 88.275C217.85 91.075 219.075 94.7 219.075 99.15C219.075 102.5 218.35 105.375 216.9 107.775C215.45 110.175 213.55 112 211.2 113.25C208.85 114.45 206.325 115.05 203.625 115.05ZM206.1 113.175C207.9 113.175 209.25 112.225 210.15 110.325C211.05 108.375 211.5 105.7 211.5 102.3C211.5 99.4 211.1 96.7 210.3 94.2C209.55 91.65 208.5 89.625 207.15 88.125C205.8 86.625 204.325 85.875 202.725 85.875C201.075 85.875 199.775 86.75 198.825 88.5C197.875 90.25 197.4 92.85 197.4 96.3C197.4 99.3 197.8 102.1 198.6 104.7C199.4 107.25 200.45 109.3 201.75 110.85C203.1 112.4 204.55 113.175 206.1 113.175ZM237.415 114.825C234.965 114.825 232.765 114.3 230.815 113.25C228.915 112.2 227.94 110.925 227.89 109.425C227.89 108.425 228.19 107.675 228.79 107.175C229.39 106.625 230.165 106.35 231.115 106.35C232.015 106.35 232.79 106.6 233.44 107.1C234.09 107.55 234.84 108.25 235.69 109.2C236.69 110.25 237.54 111.025 238.24 111.525C238.99 112.025 239.89 112.275 240.94 112.275C241.89 112.275 242.54 112.075 242.89 111.675C243.29 111.225 243.49 110.525 243.49 109.575C243.49 107.775 242.865 106.275 241.615 105.075C240.365 103.825 238.515 102.425 236.065 100.875C234.365 99.775 233.04 98.85 232.09 98.1C231.14 97.35 230.315 96.475 229.615 95.475C228.965 94.475 228.64 93.325 228.64 92.025C228.64 90.775 229.09 89.55 229.99 88.35C230.89 87.15 232.14 86.175 233.74 85.425C235.39 84.675 237.265 84.3 239.365 84.3C242.015 84.3 244.165 84.725 245.815 85.575C247.465 86.375 248.315 87.45 248.365 88.8C248.465 89.75 248.19 90.5 247.54 91.05C246.94 91.6 246.215 91.875 245.365 91.875C244.165 91.875 243.24 91.65 242.59 91.2C241.99 90.75 241.365 90.05 240.715 89.1C240.065 88.2 239.44 87.525 238.84 87.075C238.29 86.625 237.465 86.4 236.365 86.4C235.465 86.4 234.815 86.625 234.415 87.075C234.015 87.525 233.815 88.075 233.815 88.725C233.815 90.275 234.415 91.625 235.615 92.775C236.815 93.875 238.59 95.175 240.94 96.675C243.54 98.325 245.49 99.825 246.79 101.175C248.09 102.475 248.74 104.05 248.74 105.9C248.69 107.25 248.215 108.625 247.315 110.025C246.415 111.375 245.115 112.525 243.415 113.475C241.715 114.375 239.715 114.825 237.415 114.825ZM65.5 173.1C65.65 173.1 65.725 173.25 65.725 173.55C65.725 173.85 65.65 174 65.5 174C64.6 174 63.2 173.95 61.3 173.85C59.2 173.75 57.525 173.7 56.275 173.7C54.975 173.7 53.375 173.75 51.475 173.85C49.675 173.95 48.35 174 47.5 174C47.3 174 47.2 173.85 47.2 173.55C47.2 173.25 47.3 173.1 47.5 173.1C49 173.1 50.075 172.95 50.725 172.65C51.375 172.3 51.7 171.7 51.7 170.85C51.7 170.1 51.4 169.05 50.8 167.7L44.2 151.875H32.35L27.25 164.325C26.45 166.225 26.05 167.75 26.05 168.9C26.05 170.35 26.625 171.425 27.775 172.125C28.925 172.775 30.7 173.1 33.1 173.1C33.3 173.1 33.4 173.25 33.4 173.55C33.4 173.85 33.275 174 33.025 174C32.375 174 30.95 173.95 28.75 173.85C26.25 173.75 24.35 173.7 23.05 173.7C21.85 173.7 20.45 173.75 18.85 173.85C17.45 173.95 16.3 174 15.4 174C15.2 174 15.1 173.85 15.1 173.55C15.1 173.25 15.2 173.1 15.4 173.1C16.9 173.1 18.525 172.3 20.275 170.7C22.075 169.05 23.625 166.75 24.925 163.8L40.75 126.45C40.75 126.3 40.925 126.225 41.275 126.225C41.725 126.225 42.05 126.325 42.25 126.525L59.05 167.7C59.8 169.45 60.35 170.625 60.7 171.225C61.1 171.825 61.65 172.3 62.35 172.65C63.05 172.95 64.1 173.1 65.5 173.1ZM33.25 149.775H43.375L38.275 137.55L33.25 149.775ZM108.572 168.075C108.772 168.075 108.947 168.175 109.097 168.375C109.247 168.525 109.272 168.675 109.172 168.825C107.672 170.875 106.297 172.375 105.047 173.325C103.797 174.225 102.397 174.675 100.847 174.675C99.0473 174.675 97.7473 174.075 96.9473 172.875C96.1473 171.625 95.7723 169.775 95.8223 167.325L95.9723 155.4C95.9723 150.7 94.7723 148.35 92.3723 148.35C90.7723 148.35 89.3223 149.25 88.0223 151.05C86.7223 152.85 85.6723 155.525 84.8723 159.075C84.1223 162.575 83.7223 166.75 83.6723 171.6V173.1C83.6723 173.55 83.2973 173.9 82.5473 174.15C81.8473 174.45 80.7723 174.6 79.3223 174.6C77.5723 174.6 76.6473 174.4 76.5473 174V172.275C76.6473 170.875 76.6973 169.6 76.6973 168.45L76.8473 151.725C76.8473 149.275 76.1973 148.05 74.8973 148.05C73.7973 148.05 72.4223 149.05 70.7723 151.05C70.7223 151.1 70.6473 151.125 70.5473 151.125C70.3473 151.125 70.1723 151.05 70.0223 150.9C69.8723 150.7 69.8473 150.525 69.9473 150.375C71.4473 148.275 72.8973 146.75 74.2973 145.8C75.6973 144.85 77.1723 144.375 78.7223 144.375C80.4723 144.375 81.7223 144.925 82.4723 146.025C83.2723 147.075 83.6973 148.675 83.7473 150.825V157.725C84.7973 153.375 86.3473 150.025 88.3973 147.675C90.4473 145.275 92.8723 144.075 95.6723 144.075C100.472 144.075 102.872 147.375 102.872 153.975L102.797 167.325C102.747 169.675 103.322 170.85 104.522 170.85C105.072 170.85 105.622 170.625 106.172 170.175C106.772 169.725 107.472 169.075 108.272 168.225L108.572 168.075ZM137.653 167.925C137.803 167.925 137.953 168.025 138.103 168.225C138.253 168.375 138.278 168.525 138.178 168.675C136.028 170.875 134.078 172.475 132.328 173.475C130.578 174.425 128.753 174.9 126.853 174.9C121.453 174.9 118.803 172.25 118.903 166.95L118.978 151.05C119.028 149.45 118.803 148.4 118.303 147.9C117.803 147.35 116.778 147.075 115.228 147.075C115.028 147.075 114.903 146.875 114.853 146.475C114.853 146.075 114.928 145.875 115.078 145.875C119.578 145.875 122.653 143.675 124.303 139.275C124.403 139.125 124.603 139.05 124.903 139.05C125.153 139.05 125.378 139.1 125.578 139.2C125.828 139.3 125.953 139.4 125.953 139.5V145.65C128.003 145.55 131.253 145.35 135.703 145.05C135.953 145.05 136.153 145.15 136.303 145.35C136.453 145.55 136.528 145.75 136.528 145.95C136.478 146.5 136.203 147.125 135.703 147.825C135.253 148.475 134.753 148.775 134.203 148.725C131.053 148.225 128.303 147.925 125.953 147.825L125.878 165.675C125.878 167.425 126.278 168.725 127.078 169.575C127.928 170.375 129.228 170.775 130.978 170.775C133.178 170.775 135.378 169.825 137.578 167.925H137.653ZM158.678 175.05C155.778 175.05 153.278 174.375 151.178 173.025C149.128 171.625 147.578 169.775 146.528 167.475C145.478 165.175 144.953 162.65 144.953 159.9C144.953 156.8 145.603 154.05 146.903 151.65C148.203 149.25 150.003 147.4 152.303 146.1C154.653 144.75 157.278 144.075 160.178 144.075C164.578 144.075 168.003 145.475 170.453 148.275C172.903 151.075 174.128 154.7 174.128 159.15C174.128 162.5 173.403 165.375 171.953 167.775C170.503 170.175 168.603 172 166.253 173.25C163.903 174.45 161.378 175.05 158.678 175.05ZM161.153 173.175C162.953 173.175 164.303 172.225 165.203 170.325C166.103 168.375 166.553 165.7 166.553 162.3C166.553 159.4 166.153 156.7 165.353 154.2C164.603 151.65 163.553 149.625 162.203 148.125C160.853 146.625 159.378 145.875 157.778 145.875C156.128 145.875 154.828 146.75 153.878 148.5C152.928 150.25 152.453 152.85 152.453 156.3C152.453 159.3 152.853 162.1 153.653 164.7C154.453 167.25 155.503 169.3 156.803 170.85C158.153 172.4 159.603 173.175 161.153 173.175ZM219.317 168.075C219.517 168.075 219.692 168.175 219.842 168.375C219.992 168.525 220.017 168.675 219.917 168.825C218.417 170.875 217.042 172.375 215.792 173.325C214.542 174.225 213.142 174.675 211.592 174.675C209.792 174.675 208.492 174.075 207.692 172.875C206.892 171.625 206.517 169.775 206.567 167.325L206.717 155.4C206.717 150.7 205.517 148.35 203.117 148.35C201.517 148.35 200.067 149.25 198.767 151.05C197.467 152.85 196.417 155.525 195.617 159.075C194.867 162.575 194.467 166.75 194.417 171.6V173.1C194.417 173.55 194.042 173.9 193.292 174.15C192.592 174.45 191.517 174.6 190.067 174.6C188.317 174.6 187.392 174.4 187.292 174V172.275C187.392 170.875 187.442 169.6 187.442 168.45L187.592 151.725C187.592 149.275 186.942 148.05 185.642 148.05C184.542 148.05 183.167 149.05 181.517 151.05C181.467 151.1 181.392 151.125 181.292 151.125C181.092 151.125 180.917 151.05 180.767 150.9C180.617 150.7 180.592 150.525 180.692 150.375C182.192 148.275 183.642 146.75 185.042 145.8C186.442 144.85 187.917 144.375 189.467 144.375C191.217 144.375 192.467 144.925 193.217 146.025C194.017 147.075 194.442 148.675 194.492 150.825V157.725C195.542 153.375 197.092 150.025 199.142 147.675C201.192 145.275 203.617 144.075 206.417 144.075C211.217 144.075 213.617 147.375 213.617 153.975L213.542 167.325C213.492 169.675 214.067 170.85 215.267 170.85C215.817 170.85 216.367 170.625 216.917 170.175C217.517 169.725 218.217 169.075 219.017 168.225L219.317 168.075ZM235.948 174.675C234.148 174.675 232.823 174.075 231.973 172.875C231.173 171.625 230.823 169.775 230.923 167.325L231.223 151.725C231.273 149.275 230.623 148.05 229.273 148.05C228.173 148.05 226.798 149.05 225.148 151.05C225.098 151.1 225.023 151.125 224.923 151.125C224.773 151.125 224.623 151.05 224.473 150.9C224.273 150.7 224.223 150.525 224.323 150.375C225.823 148.275 227.273 146.75 228.673 145.8C230.123 144.85 231.598 144.375 233.098 144.375C236.498 144.375 238.198 146.525 238.198 150.825L237.898 167.325C237.798 169.675 238.373 170.85 239.623 170.85C240.123 170.85 240.623 170.65 241.123 170.25C241.673 169.85 242.423 169.175 243.373 168.225C243.473 168.125 243.573 168.075 243.673 168.075C243.873 168.075 244.023 168.175 244.123 168.375C244.273 168.525 244.323 168.675 244.273 168.825C242.773 170.875 241.398 172.375 240.148 173.325C238.898 174.225 237.498 174.675 235.948 174.675ZM233.923 136.875C232.473 136.875 231.348 136.475 230.548 135.675C229.748 134.875 229.348 133.75 229.348 132.3C229.348 131 229.748 129.975 230.548 129.225C231.398 128.425 232.523 128.025 233.923 128.025C235.323 128.025 236.398 128.4 237.148 129.15C237.898 129.9 238.273 130.95 238.273 132.3C238.273 133.75 237.898 134.875 237.148 135.675C236.398 136.475 235.323 136.875 233.923 136.875ZM264.955 175.05C262.055 175.05 259.555 174.375 257.455 173.025C255.405 171.625 253.855 169.775 252.805 167.475C251.755 165.175 251.23 162.65 251.23 159.9C251.23 156.8 251.88 154.05 253.18 151.65C254.48 149.25 256.28 147.4 258.58 146.1C260.93 144.75 263.555 144.075 266.455 144.075C270.855 144.075 274.28 145.475 276.73 148.275C279.18 151.075 280.405 154.7 280.405 159.15C280.405 162.5 279.68 165.375 278.23 167.775C276.78 170.175 274.88 172 272.53 173.25C270.18 174.45 267.655 175.05 264.955 175.05ZM267.43 173.175C269.23 173.175 270.58 172.225 271.48 170.325C272.38 168.375 272.83 165.7 272.83 162.3C272.83 159.4 272.43 156.7 271.63 154.2C270.88 151.65 269.83 149.625 268.48 148.125C267.13 146.625 265.655 145.875 264.055 145.875C262.405 145.875 261.105 146.75 260.155 148.5C259.205 150.25 258.73 152.85 258.73 156.3C258.73 159.3 259.13 162.1 259.93 164.7C260.73 167.25 261.78 169.3 263.08 170.85C264.43 172.4 265.88 173.175 267.43 173.175Z" fill="#F8EDEB"/>
</svg>
