<svg width="60" height="60" viewBox="0 0 60 60" fill="none" xmlns="http://www.w3.org/2000/svg">
<rect width="60" height="60" fill="#333333"/>
<path d="M58.5355 50.6951C56.3555 51.7951 54.1455 51.9751 51.9055 51.2351C49.5255 50.4751 47.4755 48.8551 45.7555 46.3751C44.8355 45.0551 44.0455 43.5251 43.3855 41.7851L42.4255 39.2351H35.3455L33.7555 43.0151C33.6555 43.2751 33.6055 43.4851 33.6055 43.6451C33.6055 43.8051 33.6355 43.9851 33.6955 44.1851C33.7755 44.3651 33.9255 44.5351 34.1455 44.6951C34.3855 44.8351 34.6455 44.9051 34.9255 44.9051H35.1655V45.2051H28.7455V44.9051H29.0155C29.4755 44.9051 29.9255 44.7751 30.3655 44.5151C30.8255 44.2351 31.2055 43.8251 31.5055 43.2851L38.1955 28.0151C37.4155 26.2551 36.5855 25.0451 35.7055 24.3851C34.9655 23.8251 34.2555 23.5451 33.5755 23.5451C32.9155 23.5451 32.2955 23.6451 31.7155 23.8451L31.6555 23.5451C33.0955 22.8051 34.4755 22.4351 35.7955 22.4351C37.4355 22.4351 38.9055 23.0751 40.2055 24.3551C41.4855 25.6151 42.6155 27.4351 43.5955 29.8151L47.9455 40.5551C49.5855 44.6151 51.2655 47.4051 52.9855 48.9251C53.6855 49.5451 54.4055 49.9751 55.1455 50.2151C55.8855 50.4551 56.5055 50.5751 57.0055 50.5751C57.5255 50.5751 58.0255 50.5151 58.5055 50.3951L58.5355 50.6951ZM35.8555 37.9451H41.9755L39.8755 32.3951C39.7755 32.1151 39.6355 31.7351 39.4555 31.2551C39.2755 30.7551 39.1555 30.4051 39.0955 30.2051L35.8555 37.9451Z" fill="#8ECAE6"/>
<path d="M3.12 14.02C4.26 13.54 5.25 13.3 6.09 13.3C6.93 13.3 7.67 13.38 8.31 13.54C8.95 13.7 9.6 13.97 10.26 14.35C10.94 14.71 11.57 15.16 12.15 15.7C13.27 16.76 14.22 17.96 15 19.3L21 30.55L29.7 15.58H29.97L33.09 33.22C33.57 35.94 34.4 38.1 35.58 39.7C36.76 41.32 38.38 42.13 40.44 42.13C40.58 42.13 40.71 42.13 40.83 42.13V42.43C39.73 42.73 38.65 42.88 37.59 42.88C35.43 42.88 33.46 42.03 31.68 40.33C29.96 38.71 28.79 36.34 28.17 33.22L26.7 24.49L21.06 34.27C20.3 35.53 19.91 36.64 19.89 37.6H19.62L12.15 23.44L10.68 35.44C10.62 35.9 10.82 36.27 11.28 36.55C11.46 36.67 11.65 36.73 11.85 36.73H12.33V37H6.06V36.7H6.54C7.06 36.7 7.52 36.55 7.92 36.25C8.34 35.93 8.6 35.5 8.7 34.96L10.74 20.65C9.84 19.05 8.81 17.63 7.65 16.39C6.35 14.99 4.99 14.29 3.57 14.29C3.43 14.29 3.3 14.3 3.18 14.32L3.12 14.02Z" fill="#F8EDEB"/>
</svg>
