<svg width="300" height="240" viewBox="0 0 300 240" fill="none" xmlns="http://www.w3.org/2000/svg">
<rect width="300" height="240" fill="url(#paint0_linear)"/>
<path d="M53.7638 55.4C50.7504 55.4 48.1371 54.8267 45.9238 53.68C43.7104 52.5333 42.0171 50.88 40.8438 48.72C39.6704 46.56 39.0838 44 39.0838 41.04C39.0838 38.08 39.6704 35.52 40.8438 33.36C42.0171 31.1733 43.6971 29.5067 45.8838 28.36C48.0971 27.1867 50.6971 26.6 53.6838 26.6C56.1638 26.6 58.4571 27.0267 60.5638 27.88C62.6704 28.7333 64.2304 29.8667 65.2438 31.28C65.5638 31.7067 65.7238 32.1467 65.7238 32.6C65.7238 33.2667 65.3638 33.8667 64.6438 34.4C64.3238 34.64 63.9238 34.76 63.4438 34.76C63.0438 34.76 62.6438 34.68 62.2438 34.52C61.8438 34.3333 61.5104 34.08 61.2438 33.76C60.3371 32.72 59.2838 31.9733 58.0838 31.52C56.8838 31.04 55.4171 30.8 53.6838 30.8C50.7771 30.8 48.5104 31.7067 46.8838 33.52C45.2571 35.3067 44.4438 37.8133 44.4438 41.04C44.4438 44.24 45.2571 46.7333 46.8838 48.52C48.5371 50.3067 50.8304 51.2 53.7638 51.2C57.1238 51.2 59.8038 50.2133 61.8038 48.24C62.6304 47.4667 63.3904 47.08 64.0838 47.08C64.5638 47.08 65.0038 47.24 65.4038 47.56C66.0171 48.0933 66.3238 48.68 66.3238 49.32C66.3238 49.8 66.1504 50.2667 65.8038 50.72C64.6571 52.1867 63.0171 53.3333 60.8838 54.16C58.7771 54.9867 56.4038 55.4 53.7638 55.4ZM88.1813 55.4C85.0613 55.4 82.3679 54.8 80.1013 53.6C77.8613 52.3733 76.1546 50.68 74.9813 48.52C73.8079 46.3333 73.2213 43.8267 73.2213 41C73.2213 38.1733 73.8079 35.68 74.9813 33.52C76.1546 31.3333 77.8613 29.64 80.1013 28.44C82.3679 27.2133 85.0613 26.6 88.1813 26.6C91.3013 26.6 93.9813 27.2133 96.2213 28.44C98.4879 29.64 100.208 31.3333 101.381 33.52C102.555 35.68 103.141 38.1733 103.141 41C103.141 43.8267 102.555 46.3333 101.381 48.52C100.208 50.68 98.4879 52.3733 96.2213 53.6C93.9813 54.8 91.3013 55.4 88.1813 55.4ZM88.1813 51.2C91.2213 51.2 93.5813 50.2933 95.2613 48.48C96.9413 46.64 97.7813 44.1467 97.7813 41C97.7813 37.8267 96.9013 35.3333 95.1413 33.52C93.4079 31.7067 90.9546 30.8 87.7813 30.8C84.8746 30.8 82.6079 31.7333 80.9813 33.6C79.3813 35.44 78.5813 37.9067 78.5813 41C78.5813 44.1467 79.4213 46.64 81.1013 48.48C82.7813 50.2933 85.1413 51.2 88.1813 51.2ZM111.839 55.4C111.039 55.4 110.399 55.1867 109.919 54.76C109.439 54.3333 109.199 53.7467 109.199 53V37.92C109.199 34.3733 110.306 31.6 112.519 29.6C114.733 27.6 117.799 26.6 121.719 26.6C125.639 26.6 128.706 27.6 130.919 29.6C133.133 31.6 134.239 34.3733 134.239 37.92V53C134.239 53.7467 133.999 54.3333 133.519 54.76C133.039 55.1867 132.399 55.4 131.599 55.4C130.799 55.4 130.146 55.1867 129.639 54.76C129.159 54.3067 128.919 53.72 128.919 53V37.8C128.919 35.5333 128.306 33.8 127.079 32.6C125.853 31.4 124.066 30.8 121.719 30.8C119.373 30.8 117.586 31.4 116.359 32.6C115.133 33.8 114.519 35.5333 114.519 37.8V53C114.519 53.72 114.266 54.3067 113.759 54.76C113.279 55.1867 112.639 55.4 111.839 55.4ZM144.141 55.36C143.341 55.36 142.701 55.1467 142.221 54.72C141.741 54.2933 141.501 53.7067 141.501 52.96V38.96C141.501 35.0933 142.608 32.0667 144.821 29.88C147.034 27.6933 150.114 26.6 154.061 26.6C156.648 26.6 158.888 27.0933 160.781 28.08C162.674 29.0667 164.114 30.4933 165.101 32.36C166.114 34.2267 166.621 36.4267 166.621 38.96V52.96C166.621 53.7067 166.381 54.2933 165.901 54.72C165.421 55.1467 164.781 55.36 163.981 55.36C163.181 55.36 162.528 55.1467 162.021 54.72C161.541 54.2667 161.301 53.68 161.301 52.96V46.44H146.821V52.96C146.821 53.68 146.568 54.2667 146.061 54.72C145.581 55.1467 144.941 55.36 144.141 55.36ZM161.301 42.32V38.84C161.301 36.1733 160.688 34.1733 159.461 32.84C158.261 31.48 156.461 30.8 154.061 30.8C149.234 30.8 146.821 33.48 146.821 38.84V42.32H161.301ZM183.572 55.4C182.772 55.4 182.132 55.1867 181.652 54.76C181.172 54.3333 180.932 53.7467 180.932 53V31.12H173.212C172.439 31.12 171.826 30.9467 171.372 30.6C170.946 30.2267 170.732 29.72 170.732 29.08C170.732 28.4133 170.946 27.9067 171.372 27.56C171.799 27.1867 172.412 27 173.212 27H193.972C194.772 27 195.386 27.1867 195.812 27.56C196.239 27.9067 196.452 28.4133 196.452 29.08C196.452 29.72 196.226 30.2267 195.772 30.6C195.346 30.9467 194.746 31.12 193.972 31.12H186.252V53C186.252 53.72 185.999 54.3067 185.492 54.76C185.012 55.1867 184.372 55.4 183.572 55.4ZM215.225 55.4C212.718 55.4 210.518 54.8933 208.625 53.88C206.758 52.8667 205.305 51.4267 204.265 49.56C203.251 47.6667 202.745 45.44 202.745 42.88V29C202.745 28.2533 202.985 27.6667 203.465 27.24C203.945 26.8133 204.585 26.6 205.385 26.6C206.185 26.6 206.825 26.8267 207.305 27.28C207.811 27.7067 208.065 28.28 208.065 29V43C208.065 45.64 208.691 47.6667 209.945 49.08C211.198 50.4933 212.998 51.2 215.345 51.2C217.665 51.2 219.451 50.4933 220.705 49.08C221.985 47.64 222.625 45.6133 222.625 43V29C222.625 28.28 222.865 27.7067 223.345 27.28C223.851 26.8267 224.505 26.6 225.305 26.6C226.105 26.6 226.745 26.8133 227.225 27.24C227.705 27.6667 227.945 28.2533 227.945 29V42.88C227.945 45.36 227.411 47.5467 226.345 49.44C225.305 51.3333 223.825 52.8 221.905 53.84C219.985 54.88 217.758 55.4 215.225 55.4ZM248.962 55.4C246.348 55.4 243.895 54.9733 241.602 54.12C239.308 53.24 237.322 51.9867 235.642 50.36C235.242 49.96 235.042 49.5067 235.042 49C235.042 48.4133 235.308 47.8533 235.842 47.32C236.268 46.8933 236.735 46.68 237.242 46.68C237.775 46.68 238.415 46.9867 239.162 47.6C240.415 48.7467 241.895 49.64 243.602 50.28C245.335 50.8933 247.122 51.2 248.962 51.2C250.722 51.2 252.095 50.9067 253.082 50.32C254.068 49.7067 254.562 48.8533 254.562 47.76C254.562 46.6133 254.028 45.6933 252.962 45C251.895 44.28 250.082 43.64 247.522 43.08C243.495 42.2 240.562 41.04 238.722 39.6C236.908 38.16 236.002 36.3067 236.002 34.04C236.002 32.6 236.482 31.32 237.442 30.2C238.402 29.0533 239.735 28.1733 241.442 27.56C243.175 26.92 245.148 26.6 247.362 26.6C249.842 26.6 252.042 27.0133 253.962 27.84C255.908 28.64 257.388 29.7733 258.402 31.24C258.748 31.8 258.922 32.28 258.922 32.68C258.895 33.3467 258.562 33.92 257.922 34.4C257.575 34.64 257.175 34.76 256.722 34.76C255.895 34.76 255.215 34.44 254.682 33.8C253.908 32.8667 252.868 32.1333 251.562 31.6C250.282 31.0667 248.882 30.8 247.362 30.8C245.468 30.8 243.988 31.0933 242.922 31.68C241.882 32.24 241.362 33.0267 241.362 34.04C241.362 35.0533 241.868 35.8933 242.882 36.56C243.922 37.2 245.708 37.8133 248.242 38.4C251.042 39.0667 253.295 39.8267 255.002 40.68C256.708 41.5067 257.948 42.4933 258.722 43.64C259.522 44.7867 259.922 46.16 259.922 47.76C259.922 49.28 259.468 50.6267 258.562 51.8C257.655 52.9467 256.375 53.84 254.722 54.48C253.068 55.0933 251.148 55.4 248.962 55.4Z" fill="#F5F5F5"/>
<path d="M95.7093 116.385V116.389L92.6321 118.879L71.4715 123.431C70.8203 123.686 70.2273 124.062 69.7265 124.539C69.2256 125.016 68.8266 125.584 68.5524 126.21C67.9985 127.475 67.9861 128.901 68.5179 130.174C68.7813 130.805 69.1703 131.379 69.6628 131.864C70.1554 132.349 70.7417 132.735 71.3884 133.001C72.6945 133.537 74.1671 133.549 75.4823 133.034L88.9608 130.837C89.7074 130.717 90.4446 130.547 91.1672 130.329C91.4513 130.247 91.7318 130.154 92.0086 130.058C93.2065 125.004 94.8888 120.069 97.0338 115.317L95.7093 116.385Z" fill="#2F2E41"/>
<path d="M89.0404 229.458L93.564 229.458L95.7158 212.563L89.0397 212.564L89.0404 229.458Z" fill="#FFB8B8"/>
<path d="M102.288 234.239L88.0712 234.24L88.071 228.921L96.7949 228.921C98.2517 228.921 99.6488 229.481 100.679 230.479C101.709 231.476 102.288 232.829 102.288 234.239Z" fill="#2F2E41"/>
<path d="M66.5332 229.458L71.0568 229.458L73.2086 212.563L66.5325 212.564L66.5332 229.458Z" fill="#FFB8B8"/>
<path d="M79.7808 234.239L65.564 234.24L65.5638 228.921L74.2877 228.921C75.7445 228.921 77.1416 229.481 78.1718 230.479C79.2019 231.476 79.7807 232.829 79.7808 234.239Z" fill="#2F2E41"/>
<path d="M90.277 160.601L94.2533 191.107C94.8 195.301 95.1824 199.51 95.4007 203.735L96.472 224.481C96.482 224.674 96.4513 224.868 96.3817 225.049C96.3121 225.231 96.2052 225.397 96.0673 225.537C95.9295 225.677 95.7636 225.789 95.5798 225.865C95.3959 225.942 95.198 225.981 94.998 225.981H88.9629C88.6099 225.981 88.2685 225.859 88.0008 225.636C87.7331 225.413 87.5567 225.105 87.5038 224.767L82.0762 190.142C82.05 189.976 81.9636 189.823 81.8324 189.712C81.7011 189.601 81.5334 189.538 81.3591 189.535C81.1847 189.532 81.015 189.589 80.8799 189.696C80.7448 189.803 80.6532 189.953 80.6212 190.119L74.0824 224.029C74.0177 224.334 73.852 224.61 73.6106 224.815C73.3691 225.021 73.065 225.144 72.7444 225.167L67.1899 225.508C66.9837 225.523 66.7766 225.495 66.5821 225.427C66.3875 225.36 66.2099 225.253 66.0606 225.114C65.9114 224.976 65.7939 224.808 65.7158 224.623C65.6376 224.438 65.6006 224.238 65.607 224.038L67.4007 168.461L90.277 160.601Z" fill="#2F2E41"/>
<path d="M72.6592 117.15C77.6642 117.15 81.7216 113.222 81.7216 108.375C81.7216 103.529 77.6642 99.6005 72.6592 99.6005C67.6543 99.6005 63.5969 103.529 63.5969 108.375C63.5969 113.222 67.6543 117.15 72.6592 117.15Z" fill="#FFB8B8"/>
<path d="M65.5558 169.176C67.7696 174.177 77.3629 177.75 79.5767 170.605C81.2888 165.081 88.0704 162.759 91.0627 161.991C91.439 161.894 91.7606 161.657 91.9581 161.332C92.1556 161.007 92.2131 160.62 92.1181 160.255L83.7534 128.44C83.2662 126.587 82.2959 124.885 80.9354 123.499C79.5748 122.113 77.8696 121.088 75.9828 120.523C69.3341 118.529 62.3237 122.634 61.1982 129.283C60.8908 131.147 60.695 133.027 60.6116 134.914C59.9178 148.951 64.0983 165.882 65.5558 169.176Z" fill="#3F3D56"/>
<path d="M65.7808 115.553C65.9759 115.665 66.1951 115.732 66.4213 115.749C66.6476 115.765 66.8748 115.732 67.0853 115.65C67.2959 115.568 67.4842 115.44 67.6357 115.277C67.7871 115.113 67.8977 114.918 67.9587 114.707L67.9638 114.687C68.1283 114.021 67.9917 113.325 67.9445 112.642C67.8973 111.959 67.9664 111.208 68.4469 110.706C69.3428 109.769 70.9366 110.266 72.232 110.029C72.9908 109.865 73.6618 109.439 74.1196 108.83C74.5773 108.222 74.7904 107.473 74.7189 106.723C74.7004 106.581 74.6715 106.439 74.6391 106.297C74.5581 105.937 74.5643 105.564 74.6574 105.206C74.7504 104.849 74.9277 104.518 75.1753 104.238C75.423 103.958 75.7342 103.738 76.0846 103.594C76.435 103.45 76.815 103.387 77.1948 103.41C78.504 103.482 79.9171 103.866 81.0003 102.927C81.3974 102.557 81.673 102.082 81.7929 101.561C81.9127 101.04 81.8715 100.496 81.6742 99.9973C81.0557 98.2687 79.3077 97.3638 77.5779 96.8663C75.4386 96.2678 73.1883 96.1384 70.9908 96.4875C68.7933 96.8367 66.7038 97.6556 64.8741 98.8847C63.7815 99.6304 62.7612 100.567 62.2955 101.781C61.8298 102.994 62.0545 104.525 63.1045 105.325C62.2906 106.16 61.7174 107.187 61.4424 108.303C61.1674 109.42 61.2003 110.587 61.5378 111.687C62.0565 113.305 64.5318 114.857 65.7808 115.553Z" fill="#2F2E41"/>
<path d="M207.233 129.099L204.3 129.081L202.732 129.074L193.747 113.865C193.823 113.706 193.888 113.542 193.943 113.375C194.943 110.388 192.304 108.334 189.792 108.377C189.506 108.377 189.221 108.409 188.943 108.473C193.893 117.146 197.212 126.601 198.747 136.398C199.002 136.467 199.262 136.518 199.525 136.548C200.896 136.667 202.277 136.622 203.635 136.412C205.466 136.187 207.196 135.869 208.119 135.937L207.233 129.099Z" fill="#A0616A"/>
<path d="M196.85 229.528H192.327L190.174 212.633L196.851 212.634L196.85 229.528Z" fill="#A0616A"/>
<path d="M189.095 228.991H197.819V234.309H183.602C183.602 233.611 183.745 232.919 184.021 232.274C184.297 231.629 184.701 231.043 185.211 230.549C185.721 230.055 186.327 229.663 186.993 229.396C187.66 229.128 188.374 228.991 189.095 228.991Z" fill="#2F2E41"/>
<path d="M228.95 229.528H224.427L222.275 212.633L228.951 212.634L228.95 229.528Z" fill="#A0616A"/>
<path d="M221.196 228.991H229.92V234.309H215.703C215.703 233.611 215.845 232.919 216.121 232.274C216.397 231.629 216.802 231.043 217.312 230.549C217.822 230.055 218.427 229.663 219.094 229.396C219.76 229.128 220.474 228.991 221.196 228.991Z" fill="#2F2E41"/>
<path d="M196.926 219.065C196.877 219.065 196.828 219.062 196.778 219.059L190.376 218.562C190.122 218.543 189.875 218.472 189.651 218.356C189.426 218.239 189.229 218.079 189.072 217.885C188.914 217.691 188.8 217.467 188.737 217.228C188.673 216.989 188.661 216.74 188.702 216.497L198.409 158.362L199.059 150.162C199.088 149.779 199.244 149.415 199.505 149.125C199.765 148.835 200.116 148.635 200.504 148.554L210.267 146.486C210.626 146.409 211.001 146.437 211.343 146.569C211.685 146.7 211.978 146.928 212.184 147.223L214.565 150.592C215.5 151.902 216.516 153.155 217.607 154.346C219.296 156.209 222.168 160.345 222.426 167.113C222.495 169.337 222.734 171.553 223.139 173.742L231 214.742C231.04 214.983 231.028 215.229 230.966 215.464C230.904 215.7 230.793 215.922 230.64 216.115C230.487 216.307 230.294 216.468 230.074 216.586C229.854 216.704 229.612 216.778 229.362 216.802L223.293 217.247C222.859 217.289 222.423 217.179 222.065 216.938C221.706 216.697 221.448 216.341 221.336 215.932L210.571 177.169C210.55 177.093 210.504 177.025 210.439 176.978C210.375 176.93 210.296 176.904 210.214 176.904C210.133 176.904 210.054 176.93 209.99 176.978C209.925 177.026 209.879 177.094 209.858 177.17L198.708 217.738C198.603 218.118 198.372 218.454 198.05 218.694C197.728 218.934 197.333 219.064 196.926 219.065Z" fill="#2F2E41"/>
<path d="M213.952 120.14C218.957 120.14 223.014 116.212 223.014 111.365C223.014 106.519 218.957 102.591 213.952 102.591C208.947 102.591 204.889 106.519 204.889 111.365C204.889 116.212 208.947 120.14 213.952 120.14Z" fill="#A0616A"/>
<path d="M198.592 151.482L198.404 138.951C197.714 130.936 201.379 126.728 204.576 124.611C205.401 124.073 206.329 123.701 207.306 123.52C208.283 123.339 209.288 123.352 210.26 123.558L217.392 125.051C218.385 125.261 219.324 125.663 220.152 126.234C220.979 126.805 221.679 127.532 222.208 128.373C222.715 129.165 223.047 130.05 223.185 130.973C223.323 131.895 223.263 132.835 223.01 133.734C222.514 135.417 221.416 136.874 219.911 137.844C213.783 142.032 213.351 149.069 213.347 149.139L213.34 149.285L198.592 151.482Z" fill="#3F3D56"/>
<path d="M202.997 141.261L197.94 137.668C197.586 137.415 197.349 137.037 197.282 136.616C197.216 136.194 197.324 135.765 197.584 135.421L204.024 126.924C204.397 126.432 204.866 126.016 205.404 125.7C205.943 125.383 206.541 125.173 207.163 125.08C207.786 124.988 208.422 125.015 209.034 125.16C209.645 125.305 210.222 125.566 210.73 125.926C211.238 126.287 211.667 126.742 211.994 127.263C212.32 127.785 212.537 128.364 212.633 128.967C212.728 129.57 212.7 130.185 212.55 130.778C212.4 131.37 212.131 131.928 211.758 132.42L205.318 140.917C205.057 141.26 204.666 141.489 204.231 141.554C203.796 141.618 203.352 141.513 202.997 141.261Z" fill="#3F3D56"/>
<path d="M211.749 109.172C210.468 109.565 209.137 109.787 207.795 109.832C206.453 109.817 205.058 109.404 204.152 108.446C202.865 107.085 202.882 104.867 203.878 103.294C204.874 101.72 206.662 100.74 208.511 100.291C210.36 99.8427 212.291 99.8638 214.197 99.8887C216.46 98.291 219.76 98.5341 222.082 100.05C224.404 101.566 225.823 104.136 226.426 106.784C227.028 109.433 226.897 112.182 226.668 114.885C226.543 116.366 226.671 118.289 228.133 118.743C229.055 119.03 230.051 118.504 230.712 117.819C231.373 117.133 231.835 116.281 232.526 115.624C233.998 114.223 236.36 113.939 238.305 114.608C240.25 115.278 241.801 116.768 242.895 118.463C244.387 120.775 245.116 123.473 244.985 126.196C244.853 128.92 243.868 131.54 242.159 133.707C240.45 135.875 238.1 137.486 235.422 138.327C232.743 139.168 229.863 139.199 227.167 138.415C222.177 136.964 218.409 132.886 215.985 128.421C212.877 122.666 211.591 116.151 212.288 109.692L211.749 109.172Z" fill="#2F2E41"/>
<path d="M216.904 129.388L206.122 127.937C205.727 127.885 205.326 127.971 204.992 128.181C204.657 128.391 204.411 128.71 204.3 129.081C204.277 129.156 204.26 129.232 204.248 129.309L203.385 135.322C203.326 135.744 203.442 136.171 203.707 136.511C203.971 136.85 204.363 137.075 204.798 137.137L215.579 138.588C216.839 138.758 218.117 138.436 219.132 137.694C220.147 136.951 220.816 135.849 220.992 134.629C221.168 133.409 220.835 132.172 220.069 131.189C219.302 130.206 218.164 129.558 216.904 129.388V129.388Z" fill="#3F3D56"/>
<g filter="url(#filter0_d)">
<path d="M198.772 117.599V117.902C198.764 118.663 198.741 119.42 198.702 120.174C197.998 133.074 192.026 145.236 182.011 154.165C171.996 163.095 158.695 168.116 144.836 168.201C130.976 168.285 117.606 163.426 107.466 154.62C97.3268 145.813 91.1851 133.726 90.3 120.834C90.2261 119.764 90.1892 118.685 90.1892 117.599C90.1697 107.119 93.6595 96.8947 100.172 88.3514C100.693 87.663 101.235 86.9872 101.797 86.3241C102.185 85.8628 102.584 85.4119 102.986 84.9644C112.151 74.8455 125.207 68.4774 139.351 67.2265C153.496 65.9755 167.604 69.9413 178.647 78.273C179.301 78.7652 179.943 79.2746 180.571 79.7944C181.074 80.2109 181.567 80.6366 182.052 81.0714C191.605 89.5876 197.485 101.067 198.583 113.345C198.709 114.749 198.772 116.167 198.772 117.599Z" fill="#48BFE3"/>
</g>
<path d="M101.797 86.3238C101.824 86.3342 101.849 86.3481 101.871 86.3651C102.163 86.5889 101.797 87.0191 101.842 87.3737C101.893 87.828 102.543 87.9278 103.034 87.9726C103.526 88.0208 104.146 88.3891 103.914 88.7952C102.68 89.1911 101.432 88.8021 100.172 88.3512C93.6595 96.8944 90.1697 107.119 90.1892 117.599C90.1892 118.686 90.2261 119.765 90.3 120.834C90.4032 120.904 90.5163 120.961 90.6361 121.003C91.0054 121.134 91.4338 121.109 91.7736 121.295C92.0432 121.443 92.2242 121.705 92.4938 121.843C93.2657 122.235 94.3368 121.481 95.0569 121.949C95.2431 122.107 95.4194 122.275 95.5851 122.452C96.2499 122.989 97.3431 122.627 98.1113 123.03C98.6062 123.288 98.8611 123.805 99.127 124.273C99.7881 125.443 100.859 126.593 102.274 126.686C102.72 126.667 103.167 126.68 103.611 126.727C104.046 126.82 104.475 127.174 104.405 127.584C104.283 128.29 104.656 129.061 104.556 129.766C104.375 131.057 102.414 131.622 102.248 132.912C102.247 133.196 102.23 133.48 102.196 133.763C102.107 134.1 101.834 134.375 101.738 134.713C101.553 135.349 102.045 135.986 102.58 136.413C103.119 136.843 103.762 137.215 104.058 137.814C104.368 138.451 104.216 139.191 104.316 139.883C104.538 141.394 105.937 142.512 107.378 143.235C107.839 143.415 108.249 143.693 108.574 144.047C108.944 144.547 108.907 145.204 109.032 145.799C109.335 147.255 110.65 148.457 110.687 149.94C110.713 150.997 110.085 151.954 109.708 152.949C109.321 153.991 109.206 155.105 109.372 156.198C111.478 157.862 113.717 159.376 116.068 160.724C116.196 160.548 116.29 160.352 116.345 160.146C116.39 159.918 116.359 159.682 116.257 159.471C116.155 159.259 115.986 159.082 115.773 158.962C116.17 158.822 116.531 158.606 116.833 158.329C116.981 158.186 117.079 158.005 117.113 157.809C117.148 157.614 117.117 157.413 117.025 157.234C117.675 157.31 118.447 157.348 118.875 156.883C119.219 156.511 119.196 155.954 119.06 155.482C118.923 155.007 118.694 154.549 118.69 154.057C120.196 154.125 121.706 154.078 123.204 153.916C122.987 153.235 122.494 152.66 121.83 152.312C122.509 152.205 123.126 151.448 123.34 150.839C123.526 150.217 123.536 149.561 123.37 148.935C123.319 148.774 123.311 148.604 123.348 148.44C123.457 148.221 123.649 148.048 123.887 147.954C125.01 147.352 126.132 146.751 127.255 146.151C127.456 146.056 127.638 145.932 127.794 145.782C128.145 145.393 128.094 144.812 127.913 144.333C127.732 143.855 127.444 143.404 127.373 142.901C127.167 141.397 128.895 140.316 129.479 138.898C129.677 138.332 129.784 137.742 129.796 137.146C129.844 136.506 129.848 135.766 129.323 135.356C128.818 134.96 128.031 135.05 127.503 134.682C127.019 134.344 126.853 133.694 126.325 133.422C125.844 133.174 125.246 133.332 124.711 133.215C123.772 133.012 123.182 132.004 122.221 131.911C121.682 131.856 121.069 132.103 120.626 131.811C120.234 131.549 120.219 131.03 120.146 130.589C120.014 129.903 119.661 129.27 119.133 128.777C118.605 128.283 117.927 127.952 117.191 127.828C116.633 127.746 116.028 127.777 115.551 127.491C115.071 127.202 114.853 126.662 114.473 126.259C113.867 125.615 112.907 125.384 112.009 125.188C110.79 124.923 109.573 124.657 108.357 124.39C107.71 124.245 106.876 124.169 106.525 124.7C106.421 124.901 106.349 125.116 106.31 125.336C106.179 125.734 105.915 126.082 105.559 126.332C105.202 126.581 104.77 126.72 104.323 126.727C104.018 126.241 103.523 125.883 102.942 125.729C102.562 125.669 102.187 125.587 101.819 125.481C101.627 125.393 101.456 125.27 101.317 125.118C101.178 124.967 101.073 124.791 101.01 124.6C100.946 124.41 100.925 124.209 100.947 124.011C100.969 123.813 101.035 123.621 101.14 123.447C101.349 123.097 101.43 122.694 101.369 122.297C101.308 121.901 101.11 121.535 100.804 121.254C100.183 120.734 99.2858 120.607 98.4511 120.659C98.2332 120.214 98.5988 119.715 98.9903 119.392C99.3855 119.072 99.862 118.755 99.9469 118.273C100.084 117.516 99.0457 116.941 98.2591 117.165C97.4724 117.392 96.9701 118.105 96.6377 118.807C96.4765 119.221 96.2566 119.613 95.984 119.974C95.8443 120.152 95.6544 120.29 95.4354 120.374C95.2164 120.458 94.9768 120.484 94.743 120.449C94.093 120.294 93.8455 119.574 93.7015 118.968C93.4707 118.159 93.354 117.325 93.3543 116.487C93.36 115.641 93.7205 114.83 94.3589 114.229C95.4337 113.306 97.0883 113.396 98.5397 113.544C98.3843 113.35 98.3097 113.111 98.3301 112.87C98.3505 112.629 98.4645 112.404 98.6505 112.236C98.8448 112.075 99.0782 111.961 99.3305 111.903C99.5828 111.846 99.8464 111.846 100.098 111.905C100.536 111.99 100.93 112.209 101.217 112.528C101.631 112.996 101.749 113.633 102.059 114.163C102.373 114.697 103.075 115.151 103.648 114.866C104.146 114.618 104.224 113.977 104.102 113.465C103.976 112.955 103.714 112.456 103.758 111.933C103.843 110.938 104.955 110.336 105.934 109.926C106.912 109.517 108.032 108.962 108.187 107.971C108.194 107.778 108.234 107.588 108.305 107.407C108.413 107.245 108.565 107.112 108.744 107.021C111.599 105.262 114.506 103.479 117.771 102.519C117.941 102.467 117.959 102.522 118.133 102.484C118.376 102.354 118.214 101.992 117.981 101.848C117.749 101.703 117.438 101.589 117.379 101.335C117.339 101.149 117.457 100.963 117.486 100.774C117.494 100.659 117.472 100.545 117.421 100.441C117.37 100.336 117.293 100.245 117.195 100.175C117.098 100.105 116.984 100.058 116.863 100.039C116.741 100.02 116.617 100.029 116.5 100.065C116.238 99.741 116.755 99.3659 117.176 99.2557C118.437 98.9339 119.731 98.7377 121.036 98.6706C121.186 98.6474 121.341 98.6716 121.475 98.7394C121.571 98.8257 121.628 98.943 121.634 99.0671C121.64 99.1913 121.595 99.313 121.508 99.4072C121.331 99.5911 121.134 99.7583 120.921 99.9063C120.709 100.098 120.558 100.34 120.484 100.607C120.409 100.873 120.415 101.154 120.5 101.417C121.183 101.741 121.922 102.075 122.679 101.961C123.433 101.848 124.101 101.056 123.747 100.426C123.418 99.8374 122.424 99.7032 122.254 99.0595C122.055 98.3057 123.2 97.6345 122.941 96.8979C122.831 96.5743 122.483 96.3816 122.218 96.151C121.905 95.8638 121.692 95.4954 121.607 95.0939C121.522 94.6923 121.569 94.2762 121.741 93.8998C121.309 93.9702 120.865 93.9432 120.446 93.8211C120.027 93.6989 119.645 93.4852 119.333 93.1977C118.757 92.6572 118.299 91.8002 117.479 91.8277C116.729 91.8484 116.083 92.6641 115.381 92.4163C115.208 92.3543 115.027 92.2304 114.86 92.3027C114.806 92.3356 114.76 92.3796 114.726 92.4315C114.692 92.4833 114.671 92.5417 114.665 92.6022C114.487 93.3973 114.794 94.3026 114.329 94.991C113.823 95.7379 112.652 95.8412 112.039 96.5158C111.706 96.8807 111.577 97.3729 111.271 97.7584C110.964 98.1439 110.318 98.3917 109.948 98.0544C110.129 97.7089 110.179 97.3163 110.089 96.9411C109.999 96.5658 109.775 96.2302 109.453 95.9892C109.113 95.7811 108.746 95.6145 108.36 95.4935C107.929 95.3241 107.52 95.1117 107.138 94.8602C106.947 94.7522 106.793 94.5973 106.691 94.4127C106.61 94.1806 106.621 93.9293 106.72 93.7037C106.907 93.2065 107.236 92.7663 107.672 92.4303C108.107 92.0943 108.632 91.8753 109.191 91.7967C109.679 91.7348 110.248 91.7554 110.573 91.4078C110.742 91.2254 110.831 90.9466 111.082 90.8743C111.24 90.8435 111.405 90.8616 111.551 90.9259C112.161 91.1256 112.766 91.3252 113.376 91.5248C113.579 91.6117 113.803 91.6462 114.026 91.6247C114.136 91.6114 114.237 91.5596 114.307 91.4796C114.378 91.3997 114.413 91.2977 114.406 91.1944C114.347 90.9121 113.882 90.7779 113.926 90.4922C113.948 90.3989 114.001 90.3144 114.077 90.2513C114.736 89.5983 115.542 89.089 116.436 88.76C117.331 88.4309 118.292 88.2902 119.252 88.3478C119.481 88.7023 119.119 89.1188 118.812 89.4183C118.509 89.7212 118.266 90.2581 118.635 90.4888C118.784 90.5616 118.951 90.5972 119.119 90.592C119.568 90.6482 120.004 90.7714 120.412 90.9569C121.043 91.2116 121.664 91.4938 122.269 91.7967C122.18 91.4277 122.195 91.0434 122.314 90.6815C122.38 90.5039 122.516 90.3558 122.693 90.266C122.871 90.1763 123.078 90.1514 123.274 90.1962C123.636 90.327 123.82 90.7744 124.208 90.8158C124.722 90.8708 124.925 90.1618 124.711 89.7212C124.496 89.2806 124.068 88.9157 124.035 88.4304C124.009 88.1068 124.142 87.7041 123.865 87.5079C123.766 87.4471 123.654 87.4093 123.536 87.3978C121.217 87.0019 118.896 86.605 116.574 86.2068C116.161 86.1345 115.566 86.1896 115.547 86.5786C115.536 86.7989 115.747 87.0157 115.655 87.2153C115.555 87.4288 115.23 87.4115 114.993 87.4873C114.816 87.5624 114.669 87.6893 114.576 87.8489C114.483 88.0085 114.448 88.1921 114.476 88.3719C114.54 88.7298 114.688 89.0698 114.912 89.3666C114.458 89.1911 113.775 89.1601 113.32 88.9811C113.254 88.4909 113.12 88.0107 112.921 87.5527C112.91 87.4798 112.882 87.4101 112.838 87.3485C112.795 87.2869 112.738 87.2349 112.67 87.1962C112.603 87.1575 112.528 87.133 112.449 87.1244C112.371 87.1158 112.291 87.1234 112.216 87.1465C111.618 87.2326 111.019 87.3152 110.421 87.4012C110.271 87.4079 110.127 87.4598 110.011 87.5492C109.778 87.7798 110.007 88.1481 110 88.4648C109.978 88.6419 109.898 88.8083 109.77 88.9409C109.643 89.0735 109.474 89.1658 109.287 89.2049C108.911 89.276 108.523 89.2713 108.15 89.1911C107.311 89.0706 106.477 88.9501 105.638 88.8297C106.378 88.6099 107.036 88.1994 107.537 87.6456C107.869 87.2807 108.046 86.5992 107.566 86.4271C107.424 86.3908 107.276 86.3803 107.13 86.3961C105.993 86.403 105.095 85.5184 104.032 85.1432C103.697 85.0269 103.343 84.9664 102.986 84.9642L101.797 86.3238Z" fill="#E5E5E5"/>
<path d="M198.704 120.174C198.574 120.336 198.402 120.467 198.205 120.554C198.008 120.641 197.792 120.682 197.574 120.673C196.418 120.58 195.93 119.027 194.785 118.852C194.684 118.828 194.577 118.837 194.482 118.879C194.313 118.965 194.283 119.179 194.272 119.358C194.224 120.246 194.183 121.168 194.556 121.988C195.099 123.185 196.506 124.19 196.211 125.461C194.623 124.776 193.795 123.113 193.422 121.519C193.046 119.926 192.987 118.253 192.314 116.745C191.801 117.354 190.73 116.852 190.265 116.212C189.821 115.606 189.548 114.904 189.12 114.288C188.691 113.675 188.034 113.124 187.251 113.09C186.427 113.055 185.711 113.582 185.083 114.081C184.537 114.457 184.078 114.932 183.735 115.479C183.295 116.305 183.41 117.275 183.388 118.194C183.366 119.186 183.14 120.236 182.413 120.965C181.685 121.692 180.344 121.946 179.543 121.289C179.155 120.912 178.879 120.449 178.742 119.943C177.87 117.576 177.145 115.165 176.57 112.721C176.437 113.279 175.909 113.998 175.406 113.671C175.294 113.582 175.204 113.472 175.141 113.348C174.202 111.871 172.47 110.983 170.716 110.45C168.965 109.92 167.122 109.672 165.39 109.087C164.419 108.758 163.491 108.327 162.624 107.803C162.404 108.105 162.275 108.457 162.252 108.822C162.228 109.186 162.311 109.55 162.491 109.875C162.686 110.192 162.987 110.441 163.349 110.582C163.711 110.724 164.113 110.75 164.493 110.656C164.877 110.539 165.202 110.291 165.582 110.167C165.963 110.047 166.476 110.105 166.642 110.45C166.805 110.777 166.561 111.173 166.683 111.517C166.864 112.036 167.71 112.078 168.005 112.553C168.092 112.741 168.112 112.95 168.062 113.149C168.012 113.349 167.895 113.528 167.728 113.661C167.388 113.919 167.013 114.135 166.613 114.301C165.372 114.945 164.489 116.043 163.403 116.897C162.317 117.754 160.785 118.377 159.492 117.83C159.799 116.373 157.941 115.306 157.597 113.857C157.483 113.379 157.542 112.873 157.383 112.408C157.15 111.734 156.508 111.272 155.983 110.763C155.346 110.137 154.85 109.4 154.523 108.593C154.196 107.786 154.046 106.926 154.081 106.064C154.111 105.466 154.229 104.856 154.081 104.271C153.937 103.689 153.417 103.125 152.774 103.149C151.308 103.211 149.457 103.314 148.689 102.147C148.412 101.731 148.294 101.122 148.693 100.801C148.973 100.578 149.387 100.598 149.753 100.633C150.857 100.733 151.958 100.836 153.062 100.936C153.834 101.005 154.669 101.063 155.333 100.688C155.998 100.313 156.286 99.3111 155.669 98.867C155.223 98.5435 154.417 98.5607 154.284 98.0478C154.177 97.6175 154.687 97.1322 154.41 96.7708C154.214 96.5161 153.771 96.5849 153.501 96.7777C153.266 97.0053 153.01 97.2138 152.737 97.4007C152.209 97.6554 151.581 97.411 151.012 97.2458C150.443 97.0806 149.683 97.0668 149.409 97.559C149.099 98.1063 149.679 98.8292 149.376 99.3799C148.97 100.106 147.603 99.6931 147.034 100.32C146.384 101.036 147.478 102.109 147.26 103.025C146.979 103.155 146.667 103.214 146.355 103.198C146.042 103.182 145.739 103.09 145.476 102.932C145.217 102.768 145.012 102.542 144.88 102.278C144.749 102.014 144.697 101.721 144.73 101.431C144.782 101.018 145.014 100.595 144.859 100.206C144.692 99.9056 144.416 99.6702 144.08 99.5417C143.009 98.9875 141.938 98.4356 140.867 97.886C140.567 98.4023 140.944 99.0391 141.417 99.4281C141.886 99.8136 142.477 100.106 142.787 100.616C142.984 100.969 143.028 101.378 142.911 101.761C142.795 102.143 142.526 102.47 142.159 102.674C142.113 102.704 142.06 102.724 142.005 102.733C141.949 102.742 141.892 102.739 141.838 102.726C141.787 102.698 141.742 102.66 141.707 102.616C141.671 102.572 141.645 102.521 141.631 102.467C141.066 101.115 140.213 99.7826 138.854 99.077C137.491 98.3679 135.537 98.5159 134.643 99.7035C134.433 99.9857 134.289 100.309 134.104 100.609C133.125 102.196 131.02 102.946 129.055 102.898C128.863 102.909 128.672 102.867 128.505 102.777C128.187 102.574 128.202 102.14 128.25 101.782C128.32 101.276 128.387 100.774 128.457 100.268C128.459 99.959 128.587 99.6623 128.815 99.4384C129.181 99.1699 129.705 99.3386 130.171 99.3317C130.522 99.3171 130.86 99.2018 131.138 99.0016C131.416 98.8014 131.622 98.526 131.726 98.213C131.819 97.8972 131.819 97.5636 131.724 97.2481C131.628 96.9327 131.443 96.6474 131.186 96.4231C130.976 96.2373 130.692 96.0032 130.802 95.7519C130.847 95.6827 130.908 95.6235 130.98 95.5783C131.052 95.5331 131.134 95.5031 131.22 95.4903C132.051 95.2666 132.933 95.2081 133.75 94.9396C134.57 94.6746 135.364 94.1307 135.559 93.3425C135.618 93.1015 135.644 92.809 135.877 92.6885C135.994 92.6445 136.12 92.6212 136.246 92.6196C136.69 92.5603 137.095 92.3484 137.38 92.0255C137.665 91.7026 137.81 91.292 137.786 90.8745C138.178 90.6198 138.728 90.8091 139.109 91.081C139.485 91.353 139.821 91.7109 140.283 91.828C141.144 92.0483 141.975 91.3357 142.868 91.3323C143.245 91.3323 143.633 91.4562 143.984 91.3357C144.342 91.2153 144.556 90.8848 144.83 90.6404C145.107 90.3926 145.587 90.2446 145.842 90.5096C145.768 90.0105 145.697 89.5149 145.624 89.0192C146.059 89.1213 146.512 89.1355 146.954 89.0607C147.395 88.9859 147.814 88.8238 148.183 88.5855C147.252 88.2929 146.325 88.0004 145.395 87.7078C145.297 87.6853 145.207 87.6403 145.132 87.577C144.929 87.3739 145.132 87.0572 145.295 86.8266C145.69 86.2724 145.757 85.3603 145.107 85.0849C144.663 84.8956 144.157 85.1228 143.733 85.3431C143.053 85.6941 142.374 86.0487 141.694 86.3998C141.631 86.7612 142.104 86.9677 142.396 87.2087C142.573 87.3557 142.699 87.5494 142.757 87.7643C142.814 87.9793 142.8 88.2054 142.717 88.4129C142.634 88.6204 142.485 88.7996 142.291 88.9268C142.096 89.0541 141.865 89.1235 141.627 89.1259C141.761 89.2888 141.854 89.4775 141.9 89.6782C141.945 89.8789 141.942 90.0866 141.89 90.2859C141.435 90.3169 140.977 90.3479 140.519 90.3788C140.443 90.393 140.365 90.3929 140.289 90.3788C140.213 90.3646 140.141 90.3365 140.076 90.2962C139.929 90.1758 139.951 89.9623 139.914 89.7834C139.853 89.5694 139.725 89.3774 139.546 89.232C139.367 89.0866 139.145 88.9945 138.909 88.9676C138.439 88.9183 137.962 88.9593 137.509 89.0881C137.313 89.1527 137.097 89.1478 136.904 89.0743C136.794 89.0067 136.711 88.9076 136.667 88.792C136.587 88.556 136.573 88.3046 136.628 88.0622C136.682 87.8198 136.803 87.5946 136.978 87.4083C137.332 87.0413 137.723 86.7059 138.145 86.4067C139.1 85.6269 139.803 84.6134 140.172 83.4809C140.926 83.1849 141.705 82.7856 142.462 82.4896C143.071 82.2267 143.709 82.027 144.364 81.8941C144.981 81.8063 145.606 81.7786 146.229 81.8115C147.079 81.8252 147.932 81.839 148.781 81.8562C149.54 81.8265 150.297 81.9281 151.016 82.1557C151.714 82.4242 152.331 83.0059 152.379 83.7081C152.393 83.7881 152.386 83.8703 152.356 83.9468C152.327 84.0233 152.278 84.0916 152.212 84.1452C152.114 84.1957 152.003 84.2196 151.891 84.2141C151.186 84.2347 150.887 84.3999 150.181 84.424C150.628 84.8681 151.13 85.3362 151.78 85.4153C152.925 85.553 153.749 84.4481 154.277 83.4878C154.296 83.7322 154.417 83.9601 154.613 84.1228C154.81 84.2855 155.067 84.3701 155.33 84.3586C155.613 84.3133 155.883 84.2149 156.124 84.0695C158.395 82.9124 160.94 82.2997 163.529 82.2865C163.503 82.1038 163.552 81.9189 163.664 81.7675C163.777 81.6162 163.946 81.5092 164.138 81.4673C164.666 81.3709 165.139 81.7943 165.394 82.2349C165.645 82.6754 165.804 83.1849 166.21 83.5153C166.613 83.8457 167.392 83.8285 167.551 83.3535C167.706 82.8957 167.193 82.5033 166.768 82.2314C166.339 81.9629 165.893 81.4638 166.181 81.0645C168.352 80.6136 170.542 80.1661 172.769 80.0767C173.148 80.0873 173.525 80.0264 173.877 79.8977C174.052 79.8288 174.197 79.7081 174.291 79.5544C174.384 79.4006 174.421 79.2225 174.395 79.0475C173.909 79.1532 173.4 79.1219 172.933 78.9577C172.466 78.7934 172.062 78.5036 171.772 78.125C174.058 77.9494 176.452 77.7946 178.649 78.273L180.573 79.7944C180.208 80.1489 179.72 80.4828 179.986 80.8374C180.074 80.9188 180.18 80.9806 180.297 81.0182C180.414 81.0557 180.539 81.068 180.662 81.0542C181.127 81.0611 181.593 81.0714 182.054 81.0714C191.607 89.5876 197.487 101.067 198.586 113.344C197.81 113.317 197.097 114.233 197.197 115.031C197.315 115.957 198.032 116.701 198.545 117.499C198.63 117.629 198.707 117.763 198.774 117.902L198.704 120.174Z" fill="#E5E5E5"/>
<path d="M115.891 140.514C115.445 140.216 114.936 140.016 114.402 139.928C113.867 139.84 113.319 139.867 112.796 140.007C112.273 140.146 111.788 140.395 111.375 140.736C110.962 141.077 110.632 141.501 110.407 141.979L97.2798 140.781L100.498 146.637L112.47 146.878C113.324 147.191 114.267 147.189 115.121 146.874C115.974 146.559 116.678 145.951 117.1 145.167C117.521 144.383 117.631 143.476 117.409 142.618C117.186 141.761 116.646 141.012 115.891 140.514Z" fill="#FFB8B8"/>
<path d="M109.363 147.028C109.207 147.196 109.017 147.33 108.804 147.422C108.591 147.514 108.36 147.561 108.127 147.561L90.9916 147.182C86.844 147.179 82.8387 145.717 79.7208 143.069L69.4466 134.344C68.8297 134.017 68.2853 133.576 67.8448 133.045C67.4042 132.514 67.076 131.905 66.879 131.251C66.6819 130.598 66.6199 129.913 66.6965 129.236C66.773 128.559 66.9866 127.904 67.3251 127.307C67.6636 126.71 68.1203 126.184 68.669 125.758C69.2178 125.332 69.8478 125.016 70.5231 124.826C71.1985 124.636 71.9058 124.577 72.6046 124.653C73.3035 124.728 73.9801 124.936 74.5959 125.264L91.6121 138.266L108.18 141.358C108.512 141.436 108.81 141.612 109.035 141.86C109.26 142.108 109.401 142.418 109.439 142.746L109.779 145.78C109.815 146.105 109.748 146.433 109.587 146.721C109.525 146.831 109.45 146.934 109.363 147.028Z" fill="#2F2E41"/>
<path d="M178.797 144.155C178.428 144.582 177.969 144.928 177.452 145.171C176.934 145.414 176.369 145.548 175.794 145.564C175.219 145.58 174.646 145.478 174.115 145.265C173.584 145.051 173.105 144.731 172.711 144.325C169.137 140.696 174.979 135.246 178.567 138.883C178.693 139.009 178.811 139.142 178.918 139.283L197.008 138.848L199.167 135.024L205.803 137.519C204.529 139.432 203.066 146.94 199.734 146.575C199.297 146.586 179.244 144.185 178.797 144.155Z" fill="#A0616A"/>
<defs>
<filter id="filter0_d" x="60.1891" y="37" width="168.583" height="161.202" filterUnits="userSpaceOnUse" color-interpolation-filters="sRGB">
<feFlood flood-opacity="0" result="BackgroundImageFix"/>
<feColorMatrix in="SourceAlpha" type="matrix" values="0 0 0 0 0 0 0 0 0 0 0 0 0 0 0 0 0 0 127 0"/>
<feOffset/>
<feGaussianBlur stdDeviation="15"/>
<feColorMatrix type="matrix" values="0 0 0 0 0.476863 0 0 0 0 0.282353 0 0 0 0 0.890196 0 0 0 0.5 0"/>
<feBlend mode="normal" in2="BackgroundImageFix" result="effect1_dropShadow"/>
<feBlend mode="normal" in="SourceGraphic" in2="effect1_dropShadow" result="shape"/>
</filter>
<linearGradient id="paint0_linear" x1="300" y1="0" x2="-38.3116" y2="157.931" gradientUnits="userSpaceOnUse">
<stop stop-color="#3AC1F0"/>
<stop offset="1" stop-color="#4E54C8"/>
</linearGradient>
</defs>
</svg>
